<svg width="42" height="41" viewBox="0 0 42 41" fill="none" xmlns="http://www.w3.org/2000/svg">
<path fill-rule="evenodd" clip-rule="evenodd" d="M0.791016 0.915039H8.0882H9.79612L10.1311 2.5228L11.0838 7.09618H39.4231H41.8823L41.4781 9.42498L39.3319 21.7872L39.0417 23.4584H37.2769H14.4927L15.3763 27.7H37.2769V31.7H13.6684H11.9605L11.6255 30.0922L7.33304 9.4884L9.37593 9.09618L7.33304 9.4884L6.38027 4.91504H0.791016V0.915039ZM11.9172 11.0962L13.6593 19.4584H35.5121L36.9638 11.0962H11.9172ZM19.2829 36.6778C19.2829 38.5186 17.7325 40.007 15.815 40.007C13.8974 40.007 12.347 38.5186 12.347 36.6778C12.347 34.837 13.8974 33.3876 15.815 33.3876C17.7325 33.3876 19.2829 34.837 19.2829 36.6778ZM32.9863 40.007C34.9038 40.007 36.4542 38.5186 36.4542 36.6778C36.4542 34.837 34.9038 33.3876 32.9863 33.3876C31.0686 33.3876 29.5181 34.837 29.5181 36.6778C29.5181 38.5186 31.0686 40.007 32.9863 40.007Z" fill="#888888"/>
</svg>
